<svg width="8" height="6" viewBox="0 0 8 6" fill="none" xmlns="http://www.w3.org/2000/svg">
<path d="M7.87213 1.03232L7.61008 0.768448C7.52761 0.686041 7.41788 0.640642 7.30061 0.640642C7.18341 0.640642 7.07355 0.686041 6.99108 0.768448L4.00179 3.75787L1.00905 0.765131C0.926707 0.682724 0.816852 0.63739 0.699648 0.63739C0.582444 0.63739 0.472524 0.682724 0.390117 0.765131L0.128001 1.02738C-0.042667 1.19792 -0.042667 1.47571 0.128001 1.64624L3.69122 5.22227C3.77356 5.30462 3.88328 5.36263 4.00153 5.36263H4.00289C4.12016 5.36263 4.22989 5.30455 4.31223 5.22227L7.87213 1.65594C7.9546 1.57359 7.99987 1.46055 8 1.34335C8 1.22608 7.9546 1.1146 7.87213 1.03232Z" fill="#35414B"/>
</svg>
