<svg width="6" height="8" viewBox="0 0 6 8" fill="none" xmlns="http://www.w3.org/2000/svg">
<path d="M1.03238 0.127872L0.768509 0.389922C0.686102 0.472394 0.640703 0.582119 0.640703 0.699388C0.640703 0.816592 0.686102 0.926447 0.768509 1.00892L3.75793 3.99821L0.765192 6.99095C0.682785 7.07329 0.637451 7.18315 0.637451 7.30035C0.637451 7.41756 0.682785 7.52748 0.765192 7.60988L1.02744 7.872C1.19798 8.04267 1.47577 8.04267 1.64631 7.872L5.22233 4.30878C5.30468 4.22644 5.36269 4.11672 5.36269 3.99847V3.99711C5.36269 3.87984 5.30461 3.77011 5.22233 3.68777L1.656 0.127872C1.57365 0.0453992 1.46061 0.000130177 1.34341 0C1.22614 0 1.11466 0.0453992 1.03238 0.127872Z" fill="#35414B"/>
</svg>
